<svg width="14" height="14" viewBox="0 0 14 14" fill="none" xmlns="http://www.w3.org/2000/svg">
<path d="M13.5734 0.00143056L9.87805 0.460415C9.74914 0.47604 9.69641 0.63229 9.78625 0.724087L10.8546 1.79245L7.85656 4.79049C7.82748 4.81986 7.81117 4.85952 7.81117 4.90084C7.81117 4.94217 7.82748 4.98183 7.85656 5.0112L8.73742 5.89206C8.79797 5.9526 8.89758 5.9526 8.95813 5.89206L11.9581 2.89206L13.0265 3.96041C13.0471 3.98102 13.0731 3.99539 13.1015 4.0019C13.1299 4.0084 13.1596 4.00677 13.1871 3.99719C13.2146 3.9876 13.2389 3.97046 13.2571 3.94772C13.2753 3.92498 13.2868 3.89757 13.2902 3.86862L13.7472 0.175259C13.7504 0.151672 13.7482 0.127657 13.7406 0.105093C13.733 0.0825282 13.7203 0.0620269 13.7034 0.0451926C13.6866 0.0283583 13.6661 0.0156476 13.6435 0.00805561C13.621 0.000463621 13.5969 -0.00180375 13.5734 0.00143056ZM5.01086 7.8569C4.98149 7.82782 4.94184 7.81151 4.90051 7.81151C4.85918 7.81151 4.81952 7.82782 4.79016 7.8569L1.79211 10.8569L0.723751 9.78854C0.703139 9.76794 0.677138 9.75356 0.64873 9.74706C0.620322 9.74055 0.590656 9.74219 0.563134 9.75177C0.535611 9.76135 0.511345 9.77849 0.493118 9.80123C0.474891 9.82397 0.463441 9.85139 0.460079 9.88034L0.00109485 13.5737C-0.0106239 13.6753 0.0733604 13.7592 0.174923 13.7475L3.87024 13.2885C3.99914 13.2729 4.05188 13.1167 3.96203 13.0249L2.89367 11.9565L5.89367 8.95651C5.95422 8.89596 5.95422 8.79635 5.89367 8.73581L5.01086 7.8569Z" fill="#0B5DAA"/>
</svg>
