<svg width="88" height="88" viewBox="0 0 88 88" fill="none" xmlns="http://www.w3.org/2000/svg">
<g filter="url(#filter0_d_695_428)">
<path d="M20 44C20 30.7452 30.7452 20 44 20C57.2548 20 68 30.7452 68 44C68 57.2548 57.2548 68 44 68C30.7452 68 20 57.2548 20 44Z" fill="#FF4D4F" shape-rendering="crispEdges"/>
<path d="M44 20.5C56.9787 20.5 67.5 31.0213 67.5 44C67.5 56.9787 56.9787 67.5 44 67.5C31.0213 67.5 20.5 56.9787 20.5 44C20.5 31.0213 31.0213 20.5 44 20.5Z" stroke="#EEEFF1" shape-rendering="crispEdges"/>
<g clip-path="url(#clip0_695_428)">
<path d="M56.6785 54.0636C56.6785 53.6877 56.9767 53.3836 57.3452 53.3836C57.7137 53.3836 58.0118 53.6877 58.0118 54.0636V55.903C58.0118 56.6906 57.6954 57.4065 57.1889 57.9231C56.6824 58.4397 55.9793 58.7625 55.2084 58.7625H34.6341C33.862 58.7625 33.1601 58.4398 32.6536 57.9231C32.1471 57.4065 31.8307 56.6893 31.8307 55.903V44.7799C31.8307 44.4041 32.1289 44.0999 32.4974 44.0999C32.8659 44.0999 33.164 44.4041 33.164 44.7799V53.4431C33.5377 53.4338 33.9101 53.4816 34.2682 53.5826C34.8919 53.7592 35.4687 54.0952 35.9388 54.5747C36.4075 55.0528 36.7382 55.6425 36.9114 56.2787C37.0104 56.6426 37.0573 57.0238 37.0482 57.4049H55.2108C55.6145 57.4049 55.983 57.2363 56.2499 56.9627C56.5168 56.6904 56.6835 56.3146 56.6835 55.9028V54.0633L56.6785 54.0636ZM34.6328 57.4038H35.7123C35.7227 57.1435 35.6927 56.8872 35.625 56.6388C35.5143 56.2311 35.2995 55.8486 34.9922 55.5351C34.6849 55.2217 34.3099 55.0025 33.9102 54.8897C33.668 54.8219 33.4167 54.7914 33.1615 54.8007V55.9017C33.1615 56.3134 33.3269 56.6893 33.5951 56.9615C33.862 57.2338 34.2305 57.4038 34.6342 57.4038L34.6328 57.4038ZM32.375 43.4386C32.0638 43.3802 31.8295 43.1026 31.8295 42.7692V41.0825C31.8295 40.295 32.1459 39.5791 32.6524 39.0625C33.1589 38.5458 33.862 38.2231 34.6329 38.2231H36.2865V32.9782C36.2865 32.6024 36.5847 32.2982 36.9532 32.2982C37.3217 32.2982 37.6198 32.6024 37.6198 32.9782V38.2231H43.5182C43.5729 37.7662 43.7799 37.3545 44.0846 37.0437C44.44 36.6771 44.9361 36.45 45.4804 36.45C45.9817 36.45 46.4413 36.6439 46.7916 36.9613C47.1419 36.6439 47.6028 36.45 48.1041 36.45C48.6054 36.45 49.065 36.6439 49.4153 36.9613C49.7656 36.6439 50.2265 36.45 50.7278 36.45C51.2291 36.45 51.6887 36.6439 52.039 36.9613C52.3893 36.6439 52.8502 36.45 53.3515 36.45C53.8932 36.45 54.3867 36.6758 54.746 37.041L54.7499 37.045C55.0546 37.3571 55.2603 37.7688 55.3163 38.2257C56.0442 38.2549 56.7044 38.571 57.1887 39.0638C57.6952 39.5804 58.0117 40.2976 58.0117 41.0838V49.9106C58.0117 50.2864 57.7135 50.5906 57.345 50.5906C56.9765 50.5906 56.6783 50.2864 56.6783 49.9106V41.0838C56.6783 40.6721 56.513 40.2963 56.2447 40.024C55.9778 39.7517 55.6093 39.5817 55.2057 39.5817H37.043C37.0521 39.9629 37.0052 40.3427 36.9063 40.708C36.7344 41.3428 36.4037 41.9338 35.9336 42.4119C35.4649 42.89 34.8868 43.2274 34.2631 43.4041C33.655 43.5767 33.004 43.594 32.3724 43.4412L32.375 43.4386ZM33.1615 41.0825V42.1836C33.4167 42.1942 33.668 42.1636 33.9102 42.0946C34.3099 41.9817 34.6849 41.7625 34.9922 41.4491C35.2995 41.1357 35.5144 40.7532 35.625 40.3454C35.6914 40.0984 35.7214 39.8407 35.7123 39.5804H34.6328C34.2292 39.5804 33.8607 39.7491 33.5938 40.0227C33.3268 40.295 33.1602 40.6708 33.1602 41.0826L33.1615 41.0825ZM44.8815 38.2217H46.0807C46.0482 38.1394 46 38.0637 45.9401 38.0026C45.8216 37.8817 45.6602 37.8087 45.4818 37.8087C45.3047 37.8087 45.1432 37.8831 45.026 38.0026C44.9635 38.0637 44.914 38.1381 44.8815 38.2217ZM47.5052 38.2217H48.7044C48.6719 38.1394 48.6237 38.0637 48.5638 38.0026C48.4453 37.8817 48.2839 37.8087 48.1055 37.8087C47.9284 37.8087 47.7669 37.8831 47.6497 38.0026L47.6237 38.0278C47.5742 38.0849 47.5338 38.15 47.5052 38.2217ZM50.1289 38.2217H51.3281C51.2956 38.1394 51.2474 38.0637 51.1875 38.0026C51.069 37.8817 50.9076 37.8087 50.7292 37.8087C50.5521 37.8087 50.3906 37.8831 50.2734 38.0026C50.2109 38.0637 50.1614 38.1381 50.1289 38.2217ZM52.7526 38.2217H53.9518C53.9193 38.1394 53.8711 38.0637 53.8112 38.0026C53.6927 37.8817 53.5313 37.8087 53.3529 37.8087C53.1758 37.8087 53.0143 37.8831 52.8971 38.0026L52.8711 38.0278C52.8216 38.0849 52.7812 38.15 52.7526 38.2217ZM56.6769 51.92C56.6769 51.5441 56.9751 51.24 57.3436 51.24C57.7121 51.24 58.0103 51.5441 58.0103 51.92V52.0541C58.0103 52.43 57.7121 52.7341 57.3436 52.7341C56.9751 52.7341 56.6769 52.43 56.6769 52.0541V51.92ZM40.6339 42.2433C41.6704 42.2433 42.6496 42.5062 43.505 42.9711L43.5337 42.987C44.0636 43.2779 44.5454 43.6444 44.9673 44.0747C45.6561 44.7773 46.1821 45.6486 46.4829 46.6207L46.4959 46.6632C46.6704 47.2423 46.7629 47.8572 46.7629 48.4947C46.7629 49.1336 46.6691 49.7498 46.4933 50.3302L46.4868 50.3501C46.1886 51.3289 45.6613 52.2055 44.9673 52.9121C44.5467 53.341 44.0637 53.7103 43.5337 53.9998L43.505 54.0157C42.6496 54.4793 41.6704 54.7435 40.6339 54.7435C39.5975 54.7435 38.6183 54.4806 37.7628 54.0157L37.7342 53.9998C37.2056 53.7089 36.7225 53.3424 36.3006 52.9121C35.6079 52.2055 35.0792 51.329 34.7811 50.3501L34.7745 50.3302C34.6001 49.7498 34.505 49.1322 34.505 48.4947C34.505 47.8586 34.5988 47.2436 34.7719 46.6632L34.785 46.6207C35.0844 45.6472 35.6105 44.7773 36.3006 44.0747C36.7212 43.6457 37.2042 43.2765 37.7342 42.987L37.7628 42.9711C38.6183 42.5075 39.5975 42.2433 40.6339 42.2433ZM44.0246 45.035L43.8723 44.8862V46.1625H44.8501C44.6288 45.7468 44.3501 45.367 44.0246 45.035ZM42.5402 44.0044C42.1509 43.8317 41.7368 43.7122 41.302 43.6511V46.1639H42.5402V44.0044ZM45.4309 48.4934C45.4309 48.1613 45.3983 47.8359 45.3371 47.5225H43.8749V49.4642H45.3371C45.3996 49.1508 45.4309 48.8254 45.4309 48.4934ZM44.0272 51.9519C44.3528 51.6198 44.6327 51.24 44.8528 50.8243H43.8749V52.1019L44.0272 51.9532L44.0272 51.9519ZM41.3033 53.3371C41.7369 53.276 42.1535 53.1551 42.5415 52.9825V50.8229H41.3033V53.3371ZM37.2459 51.9519L37.3983 52.1006V50.823H36.4204C36.6418 51.2387 36.9204 51.6185 37.2459 51.9505L37.2459 51.9519ZM38.7303 52.9825C39.1196 53.1551 39.5337 53.2747 39.9686 53.3371V50.8243H38.7303V52.9838V52.9825ZM35.8397 48.4934C35.8397 48.8255 35.8722 49.1509 35.9334 49.4643H37.3956V47.5226H35.9334C35.8709 47.8374 35.8397 48.1614 35.8397 48.4934ZM37.2433 45.035C36.9178 45.367 36.6391 45.7455 36.4178 46.1625H37.3956V44.8862L37.2433 45.035ZM39.9673 43.6497C39.5337 43.7108 39.117 43.8317 38.729 44.003V46.1612H39.9673V43.6484V43.6497ZM38.729 47.5213V49.463H39.9673V47.5213H38.729ZM41.3006 47.5213V49.463H42.5389V47.5213H41.3006ZM50.1783 41.5101H53.9126C54.3032 41.5101 54.6574 41.6721 54.9139 41.9338L54.9595 41.9869C55.1886 42.2446 55.328 42.5846 55.328 42.9565V54.0303C55.328 54.4287 55.1691 54.79 54.9126 55.0516L54.8605 55.0981C54.6079 55.3318 54.2746 55.4739 53.91 55.4739H50.1757C49.7876 55.4739 49.4335 55.3119 49.1783 55.0503C48.9191 54.7886 48.7603 54.4274 48.7603 54.0289V42.9551C48.7603 42.5593 48.9191 42.1981 49.1757 41.9378C49.4322 41.6735 49.7863 41.5115 50.177 41.5115L50.1783 41.5101ZM53.9126 42.8701H50.1783C50.1561 42.8701 50.134 42.8807 50.1197 42.8953C50.104 42.9086 50.0949 42.9312 50.0949 42.9551V44.351H51.2238C51.5923 44.351 51.8905 44.6551 51.8905 45.031C51.8905 45.4068 51.5923 45.711 51.2238 45.711H50.0949V54.0291C50.0949 54.0517 50.1053 54.0729 50.1197 54.0888C50.1327 54.1048 50.1548 54.1141 50.1783 54.1141H53.9126C53.9308 54.1141 53.9478 54.1074 53.9608 54.0981L53.9712 54.0875C53.9868 54.0716 53.9959 54.0503 53.9959 54.0278V42.954C53.9959 42.9354 53.9894 42.9181 53.9816 42.9048L53.9712 42.8942C53.9556 42.8783 53.9347 42.869 53.9126 42.869V42.8701ZM34.4763 32.8323C34.363 33.1882 33.9867 33.3835 33.6377 33.2679C33.2888 33.1524 33.0974 32.7685 33.2107 32.4126C33.4737 31.5865 33.9841 30.8932 34.6391 30.4085C35.2953 29.9224 36.0987 29.6421 36.949 29.6421C37.7992 29.6421 38.6026 29.921 39.2589 30.4085C39.9151 30.8946 40.4242 31.5879 40.6873 32.4139C40.8005 32.7699 40.6091 33.1537 40.2602 33.2692C39.9113 33.3848 39.5349 33.1895 39.4217 32.8336C39.2472 32.2891 38.9113 31.8296 38.4764 31.5082C38.0428 31.1868 37.5115 31.0021 36.9477 31.0021C36.3839 31.0021 35.8514 31.1868 35.4191 31.5082C34.9855 31.8296 34.6483 32.2878 34.4738 32.8323H34.4763ZM31.2836 32.1563C31.1703 32.5122 30.794 32.7074 30.445 32.5919C30.0961 32.4763 29.9047 32.0925 30.018 31.7366C30.5062 30.2052 31.4516 28.921 32.6664 28.0204C33.8838 27.1199 35.3721 26.6019 36.9491 26.6019C38.5272 26.6019 40.0155 27.1199 41.2317 28.0217C42.4479 28.9222 43.3919 30.2065 43.8802 31.7379C43.9934 32.0938 43.802 32.4777 43.4531 32.5932C43.1041 32.7087 42.7278 32.5135 42.6146 32.1576C42.2161 30.9065 41.444 29.8586 40.4505 29.1215C39.457 28.3857 38.2396 27.962 36.9478 27.962C35.6575 27.962 34.44 28.3857 33.4452 29.1201C32.4517 29.8573 31.6795 30.9051 31.2798 32.1562L31.2836 32.1563Z" fill="black"/>
</g>
</g>
<defs>
<filter id="filter0_d_695_428" x="0" y="0" width="88" height="88" filterUnits="userSpaceOnUse" color-interpolation-filters="sRGB">
<feFlood flood-opacity="0" result="BackgroundImageFix"/>
<feColorMatrix in="SourceAlpha" type="matrix" values="0 0 0 0 0 0 0 0 0 0 0 0 0 0 0 0 0 0 127 0" result="hardAlpha"/>
<feOffset/>
<feGaussianBlur stdDeviation="10"/>
<feComposite in2="hardAlpha" operator="out"/>
<feColorMatrix type="matrix" values="0 0 0 0 1 0 0 0 0 0.2 0 0 0 0 0.4 0 0 0 0.25 0"/>
<feBlend mode="normal" in2="BackgroundImageFix" result="effect1_dropShadow_695_428"/>
<feBlend mode="normal" in="SourceGraphic" in2="effect1_dropShadow_695_428" result="shape"/>
</filter>
<clipPath id="clip0_695_428">
<rect width="28" height="34" fill="white" transform="translate(30 25.6827)"/>
</clipPath>
</defs>
</svg>
