<svg width="88" height="88" viewBox="0 0 88 88" fill="none" xmlns="http://www.w3.org/2000/svg">
<g filter="url(#filter0_d_175_13040)">
<path d="M20 44C20 30.7452 30.7452 20 44 20C57.2548 20 68 30.7452 68 44C68 57.2548 57.2548 68 44 68C30.7452 68 20 57.2548 20 44Z" fill="#73D13D" shape-rendering="crispEdges"/>
<path d="M44 20.5C56.9787 20.5 67.5 31.0213 67.5 44C67.5 56.9787 56.9787 67.5 44 67.5C31.0213 67.5 20.5 56.9787 20.5 44C20.5 31.0213 31.0213 20.5 44 20.5Z" stroke="#313337" shape-rendering="crispEdges"/>
<path d="M46.7863 24.0975C46.9579 24.2672 47.032 24.4803 47.0367 24.7181C47.0365 24.7464 47.0363 24.7747 47.0361 24.8039C47.0365 24.8348 47.0369 24.8658 47.0373 24.8976C47.0385 25.0005 47.0385 25.1034 47.0386 25.2063C47.0392 25.2804 47.0398 25.3545 47.0406 25.4287C47.042 25.5881 47.0429 25.7474 47.0435 25.9068C47.0444 26.1599 47.0464 26.4129 47.0485 26.6659C47.0518 27.0672 47.0543 27.4685 47.0565 27.8698C47.0605 28.5855 47.0654 29.3013 47.071 30.017C47.0729 30.2675 47.0744 30.5179 47.0756 30.7684C47.0813 31.8891 47.1359 32.9845 47.2832 34.0964C47.2937 34.1774 47.3042 34.2585 47.3147 34.3395C47.372 34.7787 47.4331 35.2171 47.5009 35.6549C47.5834 36.1978 47.6467 36.7435 47.7131 37.2886C47.7551 37.6317 47.7982 37.9731 47.8583 38.3136C47.8829 38.472 47.8911 38.6305 47.8977 38.7906C47.8992 38.822 47.9007 38.8533 47.9022 38.8857C47.9058 38.9613 47.9091 39.0369 47.9123 39.1125C47.9527 39.1109 47.9931 39.1093 48.0347 39.1077C48.404 39.1193 48.699 39.3143 48.9581 39.5651C49.2354 39.8681 49.3662 40.151 49.3647 40.5682C49.3648 40.5953 49.3648 40.6224 49.3648 40.6502C49.3647 40.7387 49.3641 40.8271 49.3635 40.9156C49.3634 40.9773 49.3633 41.039 49.3632 41.1007C49.3629 41.2624 49.3621 41.4241 49.3612 41.5858C49.3604 41.7511 49.3601 41.9164 49.3597 42.0817C49.3589 42.4055 49.3575 42.7293 49.3559 43.0531C49.3861 43.0647 49.4162 43.0763 49.4473 43.0883C49.7103 43.197 49.8267 43.3884 49.9411 43.6383C49.9747 43.7508 49.9852 43.8516 49.9859 43.9688C49.9862 44.0035 49.9865 44.0382 49.9867 44.074C49.9868 44.1118 49.9869 44.1496 49.9871 44.1885C49.9873 44.2286 49.9876 44.2686 49.9878 44.3099C49.9886 44.4425 49.9891 44.5752 49.9894 44.7078C49.9896 44.7532 49.9898 44.7985 49.9899 44.8453C49.9907 45.0856 49.9913 45.3259 49.9917 45.5662C49.9921 45.8138 49.9934 46.0614 49.995 46.309C49.996 46.4999 49.9963 46.6908 49.9965 46.8817C49.9967 46.9729 49.9971 47.0642 49.9978 47.1554C49.9988 47.2835 49.9988 47.4116 49.9985 47.5397C49.9992 47.5955 49.9992 47.5955 50 47.6525C49.9972 48.016 49.9002 48.3419 49.6548 48.6154C49.59 48.6714 49.59 48.6714 49.4899 48.7117C49.3782 48.7845 49.3782 48.7845 49.3708 48.9402C49.37 49.0056 49.3702 49.071 49.3713 49.1363C49.371 49.1904 49.371 49.1904 49.3707 49.2455C49.3703 49.3667 49.3713 49.4879 49.3723 49.6091C49.3723 49.6958 49.3722 49.7825 49.372 49.8692C49.3718 50.0563 49.3722 50.2433 49.373 50.4304C49.3743 50.7266 49.3742 51.0227 49.3738 51.3189C49.3734 51.7345 49.3735 52.1502 49.3742 52.5658C49.3743 52.5922 49.3743 52.6186 49.3744 52.6458C49.3747 52.8596 49.3751 53.0734 49.3756 53.2872C49.3759 53.4734 49.3762 53.6596 49.3766 53.8458C49.3766 53.8851 49.3766 53.8851 49.3767 53.9252C49.3774 54.3637 49.3774 54.8022 49.3768 55.2406C49.3765 55.5346 49.3771 55.8286 49.3784 56.1226C49.3791 56.3063 49.3789 56.4899 49.3785 56.6736C49.3785 56.7583 49.3788 56.843 49.3795 56.9277C49.3858 57.731 49.2389 58.3211 48.678 58.9278C48.2153 59.3584 47.63 59.5695 47.0056 59.5677C46.971 59.5679 46.9365 59.5681 46.9009 59.5683C46.7861 59.5689 46.6713 59.5689 46.5564 59.5689C46.4737 59.5692 46.391 59.5695 46.3083 59.5699C46.0843 59.5708 45.8603 59.5711 45.6362 59.5713C45.4961 59.5714 45.356 59.5717 45.2159 59.572C44.7266 59.5729 44.2373 59.5734 43.748 59.5736C43.2926 59.5737 42.8373 59.5749 42.3819 59.5765C41.9903 59.5779 41.5987 59.5785 41.2071 59.5785C40.9735 59.5785 40.7399 59.5789 40.5063 59.58C40.2865 59.581 40.0667 59.5811 39.8469 59.5805C39.7665 59.5804 39.6861 59.5806 39.6057 59.5813C39.1768 59.5844 38.8144 59.5813 38.4313 59.3619C38.3815 59.3334 38.3815 59.3334 38.3306 59.3043C37.9462 59.0738 37.6747 58.7038 37.5514 58.272C37.4981 58.0484 37.4842 57.8389 37.4859 57.6096C37.4859 57.5722 37.4859 57.5349 37.4858 57.4964C37.4858 57.372 37.4863 57.2477 37.4869 57.1233C37.4869 57.0338 37.487 56.9443 37.487 56.8548C37.4871 56.6625 37.4874 56.4702 37.4878 56.2779C37.4885 55.9738 37.4884 55.6697 37.4881 55.3655C37.488 55.2613 37.4879 55.1571 37.4878 55.0529C37.4878 55.0268 37.4878 55.0008 37.4877 54.9739C37.4875 54.6781 37.4874 54.3822 37.4874 54.0863C37.4874 54.0593 37.4874 54.0323 37.4874 54.0044C37.4874 53.5662 37.4882 53.1279 37.4891 52.6896C37.4901 52.239 37.4899 51.7884 37.489 51.3378C37.4885 51.0851 37.4885 50.8323 37.4897 50.5796C37.4908 50.342 37.4907 50.1044 37.4896 49.8668C37.4894 49.7797 37.4897 49.6926 37.4905 49.6054C37.4915 49.4863 37.4908 49.3674 37.4897 49.2483C37.4904 49.2139 37.4911 49.1795 37.4919 49.1441C37.4871 48.9034 37.4154 48.7926 37.2484 48.622C36.9417 48.3061 37.0046 47.7803 37.0066 47.3748C37.0064 47.2994 37.0061 47.2239 37.0057 47.1485C37.005 46.9447 37.0053 46.741 37.0058 46.5372C37.0062 46.3233 37.0058 46.1094 37.0056 45.8955C37.0053 45.5363 37.0057 45.1772 37.0064 44.818C37.0073 44.4036 37.007 43.9892 37.0061 43.5749C37.0054 43.2182 37.0053 42.8616 37.0057 42.5049C37.006 42.2923 37.006 42.0797 37.0055 41.8671C37.005 41.6671 37.0054 41.4671 37.0063 41.2671C37.0065 41.194 37.0064 41.1209 37.0061 41.0478C37.0035 40.4539 37.0704 39.9411 37.5004 39.4938C37.8462 39.1704 38.1602 39.106 38.6223 39.1087C38.6593 39.1087 38.6962 39.1088 38.7343 39.1088C38.852 39.109 38.9696 39.1095 39.0873 39.11C39.1672 39.1102 39.2472 39.1104 39.3271 39.1106C39.5227 39.111 39.7183 39.1117 39.914 39.1125C39.914 38.8936 39.914 38.6747 39.914 38.4492C39.8367 38.4492 39.7595 38.4492 39.6799 38.4492C39.5496 38.3653 39.4951 38.3242 39.4458 38.1761C39.4419 38.1226 39.44 38.069 39.4395 38.0155C39.4391 37.9833 39.4387 37.9511 39.4383 37.918C39.4382 37.8833 39.438 37.8487 39.4378 37.813C39.4376 37.7773 39.4374 37.7416 39.4372 37.7047C39.4368 37.6291 39.4365 37.5535 39.4364 37.4778C39.436 37.3623 39.4348 37.2468 39.4336 37.1313C39.4333 37.0578 39.4331 36.9843 39.433 36.9108C39.4325 36.8763 39.432 36.8419 39.4315 36.8063C39.4322 36.62 39.4398 36.4929 39.5628 36.3423C39.6932 36.2771 39.8399 36.2965 39.9833 36.2958C40.0187 36.2955 40.0542 36.2951 40.0908 36.2948C40.2085 36.2938 40.3262 36.2932 40.4439 36.2926C40.5041 36.2923 40.5041 36.2923 40.5655 36.292C40.778 36.291 40.9905 36.2902 41.203 36.2896C41.4226 36.289 41.6422 36.2872 41.8618 36.2853C42.0306 36.2839 42.1993 36.2835 42.368 36.2833C42.449 36.283 42.53 36.2824 42.6109 36.2815C42.7242 36.2802 42.8375 36.2802 42.9508 36.2805C43.001 36.2796 43.001 36.2796 43.0522 36.2786C43.2194 36.2803 43.2887 36.2887 43.4268 36.3914C43.504 36.4992 43.5278 36.542 43.5275 36.6714C43.528 36.7209 43.528 36.7209 43.5286 36.7713C43.5276 36.8239 43.5276 36.8239 43.5266 36.8776C43.5266 36.9141 43.5266 36.9506 43.5266 36.9882C43.5264 37.0652 43.5257 37.1422 43.5246 37.2192C43.523 37.3368 43.523 37.4544 43.5233 37.5721C43.5229 37.647 43.5224 37.722 43.5217 37.7969C43.5217 37.832 43.5217 37.867 43.5217 37.9032C43.5182 38.0905 43.5087 38.2195 43.3864 38.3712C43.2691 38.4506 43.2229 38.4492 43.0743 38.4492C43.0743 38.6681 43.0743 38.887 43.0743 39.1125C43.615 39.1125 44.1558 39.1125 44.713 39.1125C44.7258 38.9193 44.7387 38.7262 44.752 38.5272C44.7735 38.3712 44.7965 38.2167 44.8227 38.0615C44.8846 37.6778 44.9371 37.2938 44.9836 36.908C45.0393 36.4489 45.1027 35.9914 45.1715 35.534C45.2501 35.0099 45.3204 34.485 45.388 33.9594C45.3918 33.9295 45.3957 33.8997 45.3997 33.8689C45.41 33.7885 45.4203 33.7081 45.4306 33.6277C45.4424 33.5355 45.4563 33.4446 45.4735 33.3532C45.5511 32.9233 45.5496 32.4927 45.5555 32.0571C45.5569 31.969 45.5584 31.881 45.5598 31.7929C45.5738 30.9296 45.5812 30.0661 45.5876 29.2026C45.5901 28.8708 45.5929 28.539 45.5959 28.2071C45.5963 28.1595 45.5967 28.1119 45.5972 28.0629C45.5985 27.9204 45.5997 27.7779 45.601 27.6354C45.6027 27.4528 45.6043 27.2702 45.606 27.0875C45.6064 27.0443 45.6067 27.0011 45.6071 26.9566C45.6097 26.6667 45.6119 26.3767 45.614 26.0868C45.6157 25.8489 45.6182 25.6109 45.6211 25.373C45.622 25.2836 45.6227 25.1943 45.6231 25.1049C45.6237 24.9868 45.6252 24.8687 45.6269 24.7505C45.6269 24.7178 45.6268 24.6851 45.6267 24.6514C45.6311 24.4472 45.6721 24.3323 45.8054 24.1693C46.1156 23.8754 46.4365 23.8944 46.7863 24.0975Z" fill="black"/>
<path d="M39.5188 41.4866C39.5462 41.4865 39.5737 41.4864 39.6021 41.4863C39.6944 41.4859 39.7868 41.4859 39.8792 41.4858C39.9453 41.4856 40.0115 41.4855 40.0776 41.4852C40.2574 41.4847 40.4373 41.4845 40.6171 41.4843C40.7295 41.4842 40.8418 41.484 40.9542 41.4839C41.3056 41.4833 41.657 41.4829 42.0085 41.4828C42.4143 41.4826 42.8201 41.4819 43.2258 41.4808C43.5394 41.48 43.853 41.4796 44.1666 41.4795C44.3539 41.4795 44.5413 41.4792 44.7286 41.4785C44.9048 41.4779 45.081 41.4778 45.2573 41.4782C45.3219 41.4782 45.3866 41.478 45.4512 41.4776C45.5395 41.4771 45.6279 41.4774 45.7162 41.4778C45.7656 41.4777 45.815 41.4777 45.8659 41.4776C46.0381 41.4963 46.1696 41.5505 46.2981 41.6677C46.4297 41.8368 46.4727 41.9473 46.474 42.1589C46.4743 42.2 46.4747 42.2411 46.475 42.2834C46.4753 42.351 46.4753 42.351 46.4755 42.4199C46.476 42.4911 46.476 42.4911 46.4765 42.5638C46.4775 42.7212 46.4781 42.8787 46.4787 43.0362C46.4789 43.0904 46.4791 43.1447 46.4793 43.199C46.4801 43.4249 46.4809 43.6508 46.4813 43.8767C46.4819 44.2 46.4832 44.5233 46.4855 44.8465C46.487 45.0741 46.4877 45.3016 46.4879 45.5292C46.4881 45.665 46.4886 45.8007 46.4898 45.9365C46.4912 46.0882 46.4911 46.2398 46.4908 46.3915C46.4914 46.4362 46.492 46.4808 46.4927 46.5268C46.4907 46.7893 46.4618 46.9943 46.2729 47.1885C46.1136 47.3096 45.9931 47.3203 45.7953 47.3207C45.7532 47.321 45.7532 47.321 45.7103 47.3213C45.6165 47.3219 45.5228 47.3216 45.4291 47.3213C45.3617 47.3215 45.2944 47.3218 45.2271 47.3221C45.0445 47.3228 44.8618 47.3228 44.6792 47.3225C44.5266 47.3224 44.3741 47.3227 44.2216 47.3229C43.8618 47.3234 43.502 47.3234 43.1421 47.3229C42.771 47.3225 42.3998 47.323 42.0287 47.3241C41.7099 47.3249 41.3912 47.3252 41.0725 47.325C40.8822 47.3248 40.6918 47.3249 40.5015 47.3256C40.3225 47.3262 40.1435 47.3261 39.9645 47.3253C39.8989 47.3252 39.8332 47.3253 39.7676 47.3257C39.6779 47.3262 39.5882 47.3258 39.4985 47.3251C39.4483 47.3251 39.3982 47.3251 39.3465 47.3251C39.1481 47.2965 39.024 47.2124 38.9047 47.053C38.8372 46.8458 38.8436 46.6465 38.8447 46.4299C38.8445 46.3811 38.8443 46.3322 38.8441 46.282C38.8436 46.1485 38.8437 46.0151 38.8441 45.8817C38.8444 45.7419 38.8441 45.6021 38.844 45.4623C38.8437 45.2275 38.844 44.9928 38.8446 44.7581C38.8452 44.4869 38.845 44.2157 38.8444 43.9445C38.8438 43.7114 38.8438 43.4783 38.8441 43.2452C38.8442 43.1061 38.8443 42.967 38.8439 42.8279C38.8435 42.6728 38.844 42.5178 38.8447 42.3627C38.8445 42.3167 38.8442 42.2707 38.844 42.2234C38.8443 42.1811 38.8446 42.1388 38.845 42.0952C38.845 42.0586 38.8451 42.022 38.8451 41.9842C38.8731 41.7907 38.9891 41.657 39.133 41.5311C39.2689 41.4858 39.3752 41.487 39.5188 41.4866Z" fill="white"/>
<path d="M40.5583 42.6953C40.5926 42.6951 40.6269 42.6949 40.6623 42.6947C40.7762 42.6941 40.8901 42.6939 41.004 42.6937C41.083 42.6934 41.1621 42.6932 41.2411 42.693C41.407 42.6926 41.5728 42.6923 41.7387 42.6922C41.9512 42.692 42.1638 42.6911 42.3763 42.6899C42.5396 42.6892 42.7029 42.689 42.8662 42.689C42.9446 42.6888 43.0229 42.6885 43.1013 42.688C43.2109 42.6873 43.3206 42.6874 43.4302 42.6877C43.4626 42.6873 43.495 42.687 43.5283 42.6866C43.7479 42.6882 43.8668 42.7369 44.0416 42.8726C44.1251 42.9834 44.1096 43.0966 44.1057 43.2304C44.0805 43.3765 44.0113 43.4357 43.8941 43.5209C43.7428 43.6231 43.5811 43.6105 43.4053 43.6103C43.355 43.6107 43.355 43.6107 43.3037 43.6111C43.193 43.6118 43.0822 43.612 42.9714 43.6121C42.8944 43.6123 42.8173 43.6126 42.7402 43.6128C42.5787 43.6133 42.4171 43.6135 42.2555 43.6134C42.0487 43.6134 41.8418 43.6145 41.635 43.6158C41.4758 43.6167 41.3166 43.6168 41.1574 43.6168C41.0812 43.6169 41.0049 43.6172 40.9287 43.6178C40.8219 43.6186 40.7152 43.6184 40.6085 43.6179C40.5614 43.6186 40.5614 43.6186 40.5134 43.6192C40.309 43.617 40.1946 43.5765 40.0315 43.4429C39.9406 43.3272 39.9351 43.1996 39.9381 43.0541C39.9657 42.9116 40.0461 42.8406 40.1486 42.7406C40.2763 42.6767 40.4178 42.6955 40.5583 42.6953Z" fill="black"/>
<path d="M43.1919 49.1004C43.4509 49.2967 43.5981 49.5214 43.6601 49.8417C43.6848 50.1777 43.6007 50.44 43.3869 50.7C43.1629 50.9186 42.9303 51.0088 42.6188 51.0317C42.3346 51.0247 42.0737 50.898 41.8658 50.7067C41.6628 50.459 41.5624 50.1334 41.5765 49.8138C41.6381 49.4642 41.8577 49.2236 42.1384 49.0223C42.4593 48.8512 42.8944 48.9048 43.1919 49.1004Z" fill="white"/>
<path d="M40.4791 44.4859C40.522 44.4856 40.565 44.4852 40.6093 44.4848C40.6556 44.4848 40.7018 44.4849 40.7495 44.4849C40.821 44.4847 40.821 44.4847 40.8941 44.4844C40.995 44.4842 41.096 44.4842 41.1969 44.4843C41.3512 44.4845 41.5055 44.4835 41.6598 44.4825C41.7579 44.4825 41.856 44.4824 41.9541 44.4825C42.0002 44.4821 42.0463 44.4818 42.0938 44.4814C42.3586 44.4829 42.5517 44.4951 42.7567 44.6795C42.8214 44.8127 42.8211 44.9383 42.8006 45.0819C42.7497 45.2091 42.705 45.2621 42.5927 45.3398C42.3815 45.4197 42.1808 45.4115 41.9568 45.4109C41.9092 45.4111 41.8616 45.4113 41.8126 45.4116C41.7121 45.4118 41.6116 45.4118 41.5111 45.4114C41.3575 45.4111 41.2039 45.4122 41.0503 45.4135C40.9526 45.4135 40.8548 45.4135 40.7571 45.4134C40.7112 45.4138 40.6654 45.4143 40.6181 45.4147C40.3726 45.4126 40.2145 45.4079 40.0304 45.238C39.9257 45.0808 39.9258 44.9544 39.9524 44.7698C40.0846 44.5478 40.2277 44.4871 40.4791 44.4859Z" fill="black"/>
<path d="M45.6581 49.2442C45.6986 49.2431 45.7391 49.242 45.7808 49.2408C46.0139 49.2389 46.1736 49.2428 46.3506 49.4125C46.4663 49.616 46.4539 49.8486 46.4287 50.0758C46.3823 50.2007 46.3172 50.282 46.2024 50.3538C46.0282 50.423 45.8358 50.404 45.6508 50.405C45.6084 50.4063 45.5661 50.4075 45.5225 50.4089C45.2108 50.411 45.2108 50.411 45.0556 50.2942C44.8953 50.0639 44.9195 49.8003 44.946 49.5295C45.0908 49.2131 45.3566 49.247 45.6581 49.2442Z" fill="white"/>
<path d="M39.5551 49.2466C39.5941 49.2458 39.633 49.245 39.6732 49.2442C39.926 49.2429 40.0697 49.2608 40.2565 49.4407C40.3246 49.5687 40.3192 49.6756 40.3184 49.8197C40.3188 49.8957 40.3188 49.8957 40.3193 49.9732C40.3031 50.1208 40.2767 50.1934 40.1867 50.3098C40.0014 50.4334 39.8048 50.4038 39.5868 50.4049C39.5203 50.4069 39.5203 50.4069 39.4524 50.4088C39.133 50.4109 39.133 50.4109 39.0214 50.3446C38.9684 50.2917 38.9684 50.2917 38.8992 50.1928C38.8863 50.1799 38.8734 50.167 38.8601 50.1538C38.852 50.0531 38.8475 49.9547 38.8455 49.8538C38.8441 49.8262 38.8426 49.7986 38.8411 49.7701C38.8385 49.613 38.8529 49.5185 38.9537 49.3946C39.1381 49.2144 39.3083 49.2479 39.5551 49.2466Z" fill="white"/>
<path d="M42.6045 56.5354C42.656 56.5342 42.656 56.5342 42.7086 56.533C42.9816 56.5332 43.1219 56.6079 43.3238 56.7939C43.4137 56.9494 43.4175 57.0793 43.3872 57.2547C43.2927 57.451 43.1977 57.5277 42.9971 57.6059C42.8602 57.6243 42.7253 57.6258 42.5874 57.6254C42.5513 57.6265 42.5153 57.6276 42.4781 57.6288C42.3029 57.6293 42.1778 57.6259 42.0384 57.5128C41.8837 57.3464 41.8468 57.2104 41.8532 56.9813C41.8795 56.8157 41.9739 56.7082 42.1006 56.6055C42.2686 56.5288 42.4219 56.5339 42.6045 56.5354Z" fill="white"/>
<path d="M45.6666 52.0072C45.6986 52.0066 45.7306 52.006 45.7636 52.0054C45.9914 52.0068 46.1256 52.0524 46.3128 52.1828C46.4396 52.326 46.4477 52.4607 46.4412 52.6452C46.4184 52.8127 46.3231 52.935 46.1957 53.0411C46.0184 53.1003 45.8426 53.0921 45.6568 53.0948C45.6184 53.0962 45.5799 53.0977 45.5403 53.0992C45.2217 53.103 45.2217 53.103 45.0793 52.9875C44.9475 52.8425 44.9146 52.7492 44.8936 52.5559C44.9159 52.344 45.0032 52.234 45.1641 52.0991C45.3384 52.0051 45.4719 52.0035 45.6666 52.0072Z" fill="white"/>
<path d="M42.6009 52.0143C42.6317 52.0137 42.6626 52.013 42.6943 52.0124C42.9503 52.0122 43.1104 52.07 43.3032 52.246C43.4091 52.4141 43.4194 52.535 43.3861 52.7288C43.3285 52.8549 43.2587 52.952 43.152 53.0409C42.9802 53.0982 42.8126 53.0903 42.6326 53.0921C42.5777 53.0938 42.5777 53.0938 42.5217 53.0955C42.2892 53.0977 42.1581 53.0791 41.9815 52.9239C41.8802 52.7753 41.8388 52.6384 41.8454 52.4567C41.8875 52.2821 42.0206 52.1601 42.1629 52.0586C42.3072 52.0081 42.4491 52.0137 42.6009 52.0143Z" fill="white"/>
<path d="M45.6402 54.2799C45.6672 54.2791 45.6941 54.2783 45.7219 54.2774C45.9762 54.2755 46.1544 54.3362 46.3498 54.5067C46.45 54.6409 46.4602 54.7701 46.4523 54.9343C46.4157 55.0953 46.3238 55.2026 46.1962 55.3041C46.0189 55.3632 45.8431 55.3551 45.6573 55.3577C45.6189 55.3592 45.5804 55.3606 45.5408 55.3621C45.2222 55.366 45.2222 55.366 45.0798 55.2504C44.947 55.1043 44.9139 55.0119 44.8965 54.8164C44.9142 54.6182 44.9771 54.5285 45.1233 54.3969C45.2903 54.28 45.4434 54.2813 45.6402 54.2799Z" fill="white"/>
<path d="M42.6446 54.2772C42.6847 54.2763 42.6847 54.2763 42.7257 54.2753C42.9725 54.2751 43.1229 54.3445 43.303 54.5089C43.4089 54.6771 43.4192 54.798 43.3859 54.9917C43.3283 55.1179 43.2585 55.215 43.1518 55.3038C42.98 55.3611 42.8125 55.3532 42.6324 55.3551C42.5775 55.3568 42.5775 55.3568 42.5215 55.3585C42.289 55.3606 42.158 55.342 41.9813 55.1868C41.8801 55.0384 41.8382 54.9013 41.8455 54.7197C41.8813 54.5689 41.9769 54.4599 42.0984 54.3675C42.2793 54.289 42.4499 54.2763 42.6446 54.2772Z" fill="white"/>
<path d="M39.6226 52.0143C39.6512 52.0137 39.6798 52.013 39.7093 52.0124C39.9421 52.0122 40.0999 52.0691 40.281 52.2216C40.3777 52.4002 40.3689 52.569 40.3444 52.7678C40.2777 52.9363 40.1957 53.0056 40.0323 53.0799C39.889 53.0972 39.7472 53.0963 39.6031 53.0946C39.5454 53.0952 39.5454 53.0952 39.4866 53.0959C39.1371 53.0945 39.1371 53.0945 38.9788 52.9629C38.8394 52.809 38.8397 52.6415 38.8456 52.4426C38.8718 52.274 38.9269 52.2147 39.0569 52.1045C39.2475 52.023 39.4189 52.0134 39.6226 52.0143Z" fill="white"/>
<path d="M45.6431 56.5428C45.6741 56.542 45.7051 56.5412 45.737 56.5404C45.9946 56.5387 46.1537 56.5948 46.3478 56.772C46.454 56.9407 46.468 57.0607 46.4307 57.2549C46.3363 57.4511 46.2409 57.5274 46.0406 57.606C45.9101 57.6234 45.7818 57.6241 45.6504 57.6231C45.6162 57.6239 45.582 57.6246 45.5468 57.6254C45.3275 57.6253 45.1994 57.5969 45.0261 57.4499C44.9103 57.311 44.8905 57.1934 44.8978 57.0177C44.9254 56.8345 45.0473 56.7096 45.1822 56.5916C45.3376 56.5398 45.4803 56.5439 45.6431 56.5428Z" fill="white"/>
<path d="M39.577 56.5402C39.6097 56.5395 39.6423 56.5389 39.676 56.5383C39.923 56.5381 40.0862 56.5849 40.2793 56.7474C40.3766 56.9272 40.3811 57.0942 40.3427 57.2937C40.255 57.4509 40.1629 57.5487 39.9915 57.6058C39.8584 57.6187 39.7252 57.6202 39.5916 57.6229C39.5553 57.6247 39.5191 57.6264 39.4817 57.6283C39.2463 57.6321 39.1193 57.5979 38.9479 57.4337C38.8381 57.2942 38.8448 57.1322 38.8463 56.9625C38.8689 56.8009 38.9355 56.7392 39.0551 56.6304C39.2257 56.5283 39.3831 56.5394 39.577 56.5402Z" fill="white"/>
<path d="M40.1872 54.4066C40.3003 54.4971 40.3369 54.5584 40.3579 54.7015C40.3657 54.8827 40.3558 55.0045 40.2774 55.1699C40.1351 55.3199 40.0051 55.3468 39.8034 55.3589C39.7314 55.3605 39.6593 55.3617 39.5873 55.3625C39.5514 55.3641 39.5155 55.3657 39.4785 55.3674C39.2431 55.3701 39.1183 55.3326 38.9486 55.167C38.8372 55.0348 38.8475 54.9065 38.8501 54.7399C38.8661 54.5894 38.9115 54.5145 39.0167 54.4066C39.3641 54.2136 39.8384 54.2193 40.1872 54.4066Z" fill="white"/>
</g>
<defs>
<filter id="filter0_d_175_13040" x="0" y="0" width="88" height="88" filterUnits="userSpaceOnUse" color-interpolation-filters="sRGB">
<feFlood flood-opacity="0" result="BackgroundImageFix"/>
<feColorMatrix in="SourceAlpha" type="matrix" values="0 0 0 0 0 0 0 0 0 0 0 0 0 0 0 0 0 0 127 0" result="hardAlpha"/>
<feOffset/>
<feGaussianBlur stdDeviation="10"/>
<feComposite in2="hardAlpha" operator="out"/>
<feColorMatrix type="matrix" values="0 0 0 0 0 0 0 0 0 1 0 0 0 0 0.533333 0 0 0 0.25 0"/>
<feBlend mode="normal" in2="BackgroundImageFix" result="effect1_dropShadow_175_13040"/>
<feBlend mode="normal" in="SourceGraphic" in2="effect1_dropShadow_175_13040" result="shape"/>
</filter>
</defs>
</svg>
